<svg version="1.1" id="Layer_1" xmlns="http://www.w3.org/2000/svg" xmlns:xlink="http://www.w3.org/1999/xlink" x="0px" y="0px"
	 width="100%" viewBox="0 0 208 144" enable-background="new 0 0 208 144" xml:space="preserve">
<path fill="#000000" opacity="1.000000" stroke="none" 
	d="
M1.000000,61.000000 
	C1.000000,40.666672 1.000000,20.833340 1.000000,1.000008 
	C70.333321,1.000005 139.666641,1.000005 208.999969,1.000003 
	C208.999969,48.999973 208.999969,96.999947 208.999985,144.999939 
	C139.666702,144.999969 70.333405,144.999969 1.000055,144.999985 
	C1.000000,117.166664 1.000000,89.333336 1.000000,61.000000 
M145.149689,45.111843 
	C135.128708,47.357483 125.087021,49.460842 114.741737,49.402573 
	C111.916077,49.386658 110.365799,50.669029 110.366165,53.591202 
	C110.367828,66.890282 110.367569,80.189369 110.370232,93.488449 
	C110.370750,96.086563 111.578957,97.545059 114.269844,97.593742 
	C125.425011,97.795540 136.324097,99.747620 147.008194,102.790268 
	C150.324783,103.734787 151.636597,102.555565 152.393341,99.694878 
	C156.844528,82.868111 156.699417,66.012505 153.122055,49.037449 
	C152.148666,44.418640 150.049240,43.229115 145.149689,45.111843 
M46.428314,35.328835 
	C40.676563,32.135723 40.393322,32.322876 36.724464,37.751099 
	C30.760643,46.574825 27.219429,56.154121 25.819162,66.768761 
	C23.624449,83.405640 28.697842,97.867989 37.874168,111.298714 
	C39.460808,113.620956 41.355534,114.318329 44.219105,112.609482 
	C48.190285,110.239677 52.461872,108.330017 56.728859,106.514893 
	C59.425117,105.367943 59.914387,103.981934 59.140980,101.153107 
	C54.972908,85.907852 54.741184,70.410881 56.753654,54.824642 
	C57.316116,50.468460 61.085365,45.596493 58.592613,42.085846 
	C56.291187,38.844658 51.038731,37.698872 46.428314,35.328835 
M189.761978,81.487129 
	C191.565735,76.060463 190.245071,70.673759 189.665039,65.247673 
	C188.447998,53.862839 183.912933,43.943180 177.045868,34.903275 
	C175.433365,32.780548 174.283066,32.844471 172.133316,34.041050 
	C168.222290,36.217964 164.192780,38.305229 159.987518,39.793613 
	C156.220535,41.126865 155.814850,43.208572 156.718002,46.622368 
	C161.519348,64.770859 161.835129,82.946762 156.560181,101.071266 
	C155.656418,104.176590 156.346878,106.251244 159.575943,107.201920 
	C163.594299,108.384956 167.253448,110.379868 170.774170,112.551170 
	C173.775116,114.401917 175.712967,113.461845 177.480820,110.912209 
	C183.504639,102.224480 188.099518,92.933189 189.761978,81.487129 
M65.215988,44.238316 
	C61.851765,49.073620 61.447079,54.808418 60.921844,60.312603 
	C59.672035,73.409966 59.729397,86.503792 63.109249,99.388130 
	C63.799942,102.021126 64.723633,103.588760 67.903381,102.678963 
	C78.784813,99.565514 89.892799,97.793282 101.225761,97.634430 
	C104.087311,97.594307 105.596489,96.390259 105.595421,93.460770 
	C105.590538,80.140152 105.589149,66.819527 105.593559,53.498905 
	C105.594330,51.168770 104.653160,49.484665 102.166168,49.494434 
	C89.777512,49.543068 77.847435,46.627796 65.215988,44.238316 
M76.601540,20.111691 
	C72.957191,24.690409 70.208466,29.796659 67.694557,35.054447 
	C66.542503,37.463963 66.582306,38.932442 69.649101,39.794243 
	C79.888939,42.671738 90.198639,44.844185 100.916809,44.652618 
	C104.319275,44.591808 105.670769,43.107498 105.646507,39.778603 
	C105.569008,29.143099 105.592171,18.506706 105.613556,7.870732 
	C105.620438,4.449535 104.541054,3.245964 100.739754,4.002452 
	C90.647804,6.010837 83.648460,12.404014 76.601540,20.111691 
M147.073196,33.143761 
	C146.194626,31.356503 145.426773,29.504091 144.419556,27.792545 
	C137.823868,16.584547 129.221664,7.823282 116.200005,4.207969 
	C112.067001,3.060488 110.266304,3.926959 110.318474,8.435907 
	C110.437706,18.740871 110.429893,29.049395 110.294914,39.354130 
	C110.244682,43.189854 111.741089,44.701035 115.605270,44.674294 
	C125.470795,44.606022 134.932037,42.276363 144.482880,40.221870 
	C149.001755,39.249817 149.539825,37.324703 147.073196,33.143761 
M93.770081,140.750366 
	C95.647232,141.405624 97.507530,142.115036 99.404831,142.705597 
	C104.288734,144.225800 105.556427,143.417450 105.591827,138.468048 
	C105.665489,128.167755 105.525322,117.865463 105.656113,107.566322 
	C105.705139,103.705750 104.163399,102.189346 100.319893,102.300812 
	C90.002617,102.600044 79.940666,104.280937 70.023033,107.104935 
	C66.951065,107.979652 66.387672,109.408333 67.678383,112.167343 
	C73.294174,124.171600 80.862816,134.395447 93.770081,140.750366 
M111.671692,103.073418 
	C110.307800,104.139168 110.352753,105.664894 110.352867,107.165268 
	C110.353683,117.800468 110.404701,128.435913 110.344864,139.070740 
	C110.322060,143.124756 112.056503,143.826294 115.706718,142.734085 
	C132.083344,137.834015 141.168701,125.649590 147.875961,111.001205 
	C149.153961,108.210121 147.162628,107.242996 145.209869,106.794060 
	C134.411896,104.311630 123.634964,101.524689 111.671692,103.073418 
M63.141144,112.587479 
	C62.502640,110.750015 61.357216,109.747330 59.375298,110.616150 
	C54.430737,112.783745 49.144287,114.350441 44.661869,118.746803 
	C55.351696,129.414154 67.441078,136.901627 82.382797,139.671310 
	C74.729698,131.709641 67.481331,123.593803 63.141144,112.587479 
M151.222473,32.307243 
	C152.350601,34.257252 153.093613,37.202816 156.140320,36.065872 
	C161.046158,34.235165 165.997849,32.318604 169.946381,28.707766 
	C165.384384,20.091007 143.362198,7.376404 133.949112,8.213232 
	C140.968597,15.359104 147.211136,22.622128 151.222473,32.307243 
M168.903763,119.908188 
	C170.632034,118.595284 170.988586,117.427147 168.670029,116.320465 
	C165.825226,114.962601 163.038635,113.483437 160.210297,112.090385 
	C154.002365,109.032806 153.840256,109.052750 151.064667,115.216095 
	C148.739105,120.380112 145.903015,125.239487 142.628891,129.840775 
	C140.556824,132.752747 137.291672,134.687180 134.771225,139.278931 
	C148.576736,135.682877 159.030151,128.954712 168.903763,119.908188 
M63.484196,32.987114 
	C67.131630,23.921741 73.065994,16.315701 79.355896,8.805067 
	C65.331184,11.224501 54.566639,18.619287 44.588020,28.572107 
	C49.092415,32.321518 53.780205,34.258228 58.551388,36.183701 
	C61.566936,37.400665 62.461159,35.959869 63.484196,32.987114 
z"/>
<path fill="#000000" opacity="1.000000" stroke="none" 
	d="
M135.302490,65.771652 
	C130.371567,64.672470 128.375458,66.862900 128.249924,71.200249 
	C128.168198,74.024033 128.169785,76.852509 128.219574,79.677376 
	C128.347549,86.939842 131.058334,88.294823 137.532593,84.372124 
	C137.753113,83.393143 137.142517,82.866066 136.471664,82.336731 
	C135.375839,81.472069 134.473358,80.405960 135.033585,78.936142 
	C135.646393,77.328339 137.236099,77.826248 138.489594,77.655922 
	C138.653198,77.633690 138.826355,77.620361 138.987167,77.648384 
	C141.925842,78.160378 146.205780,75.934837 147.512894,79.485100 
	C148.743820,82.828453 145.396103,85.569901 142.822433,87.634483 
	C137.889572,91.591629 132.252457,92.474846 126.514969,89.700790 
	C120.722816,86.900276 117.545273,82.396797 117.509705,75.514694 
	C117.476410,69.071671 119.850693,64.664299 125.717476,62.133350 
	C131.939941,59.448963 137.743484,60.292629 142.944229,64.548882 
	C144.222992,65.595406 146.338120,66.959129 144.806412,69.042328 
	C143.271545,71.129829 141.909210,68.843201 140.549850,68.285294 
	C138.877029,67.598724 137.286514,66.711555 135.302490,65.771652 
z"/>
<path fill="#000000" opacity="1.000000" stroke="none" 
	d="
M39.624474,68.069122 
	C39.846703,65.485786 38.910000,63.063663 40.601036,61.392815 
	C41.836456,60.172142 43.753933,60.533272 45.349380,60.982231 
	C47.113510,61.478661 47.317585,63.053055 47.322292,64.599014 
	C47.341503,70.906532 47.206062,77.217827 47.384876,83.520432 
	C47.515385,88.120567 44.974968,90.321762 40.974861,90.933090 
	C37.087910,91.527107 34.513927,89.461143 32.560120,85.173759 
	C40.445499,86.152023 39.673050,81.099220 39.627365,76.524696 
	C39.600845,73.869072 39.623592,71.212967 39.624474,68.069122 
z"/>
<path fill="#000000" opacity="1.000000" stroke="none" 
	d="
M167.871323,70.503387 
	C167.448792,66.524307 167.153702,62.983349 171.460724,61.368938 
	C174.791412,60.120495 177.826660,60.260849 180.426559,62.744518 
	C180.286911,63.432320 180.290771,63.981438 180.150803,64.020943 
	C174.304459,65.670975 175.422455,69.410629 177.083237,73.552788 
	C178.122620,76.145111 178.840454,78.892708 179.444168,81.627663 
	C180.572632,86.739830 177.484680,90.828377 172.358521,91.283180 
	C169.996582,91.492744 167.602066,90.940285 167.147263,88.539780 
	C166.474884,84.990921 170.053070,87.165894 171.844711,85.601669 
	C171.891739,80.628845 168.769409,76.032120 167.871323,70.503387 
z"/>
<path fill="#000000" opacity="1.000000" stroke="none" 
	d="
M87.909073,82.298553 
	C84.684464,82.404465 83.236832,83.791214 83.304817,86.688812 
	C83.394859,90.527275 81.063477,91.332542 77.777267,91.319717 
	C73.950020,91.304779 73.604065,88.925209 73.623978,85.996765 
	C73.671387,79.023483 73.726677,72.048149 73.602394,65.076782 
	C73.546654,61.950542 74.632637,60.400391 77.908157,60.639671 
	C81.687042,60.915730 85.473038,60.245003 89.267273,61.368366 
	C93.949463,62.754631 96.662148,65.703453 97.279778,70.386215 
	C97.944366,75.425018 95.776482,79.058228 91.017342,81.045380 
	C90.102440,81.427391 89.203316,81.847183 87.909073,82.298553 
M91.551231,72.053329 
	C92.083374,68.256462 90.618332,65.584381 86.664986,65.580833 
	C82.167557,65.576805 83.587898,69.377602 83.349449,71.955978 
	C83.258720,72.937042 83.299278,73.971306 83.509758,74.930939 
	C84.005981,77.193443 85.405449,77.922562 87.580620,77.015961 
	C89.521683,76.206909 90.968239,74.939209 91.551231,72.053329 
z"/>
</svg>